<svg version="1.1" xmlns="http://www.w3.org/2000/svg" xmlns:xlink="http://www.w3.org/1999/xlink" width="152.32807" height="136.74906" viewBox="0,0,152.32807,136.74906"><defs><linearGradient x1="296.67312" y1="173.28419" x2="335.27356" y2="173.28419" gradientUnits="userSpaceOnUse" id="color-1"><stop offset="0" stop-color="#ffffff" stop-opacity="0"/><stop offset="1" stop-color="#ffffff"/></linearGradient><radialGradient cx="320.00001" cy="180" r="96.42562" gradientUnits="userSpaceOnUse" id="color-2"><stop offset="0" stop-color="#000000"/><stop offset="1" stop-color="#000000" stop-opacity="0"/></radialGradient></defs><g transform="translate(-243.83597,-111.62547)"><g data-paper-data="{&quot;isPaintingLayer&quot;:true}" fill-rule="nonzero" stroke-linecap="butt" stroke-linejoin="miter" stroke-miterlimit="10" stroke-dasharray="" stroke-dashoffset="0" style="mix-blend-mode: normal"><path d="M269.50001,230.5v-101h101v101z" fill="#000000" stroke="#ffffff" stroke-width="2.5"/><path d="M296.67312,177.31086v-8.05333h38.60044v8.05333z" fill="url(#color-1)" stroke="none" stroke-width="0"/><path d="M339.88276,173.25763c0,2.3196 -1.76848,4.2 -3.95,4.2c-2.18152,0 -3.95,-1.8804 -3.95,-4.2c0,-2.3196 1.76848,-4.2 3.95,-4.2c2.18152,0 3.95,1.8804 3.95,4.2z" fill="#ffffff" stroke="none" stroke-width="0"/><text transform="translate(285.84031,153.55016) scale(0.48029,0.48029)" font-size="40" xml:space="preserve" fill="#ffffff" fill-rule="nonzero" stroke="none" stroke-width="1" stroke-linecap="butt" stroke-linejoin="miter" stroke-miterlimit="10" stroke-dasharray="" stroke-dashoffset="0" font-family="&quot;Bahnschrift&quot;, Pixel" font-weight="normal" text-anchor="start" style="mix-blend-mode: normal"><tspan x="0" dy="0">Speed 3</tspan></text><path d="M243.83598,248.37453v-136.74906h152.32807v136.74906z" fill="url(#color-2)" stroke="none" stroke-width="0"/><text transform="translate(276.74575,185.76348) scale(0.48029,0.48029)" font-size="40" xml:space="preserve" fill="#dadada" fill-rule="nonzero" stroke="none" stroke-width="1" stroke-linecap="butt" stroke-linejoin="miter" stroke-miterlimit="10" stroke-dasharray="" stroke-dashoffset="0" font-family="&quot;Bahnschrift&quot;, Pixel" font-weight="normal" text-anchor="start" style="mix-blend-mode: normal"><tspan x="0" dy="0">Max Level</tspan></text></g></g></svg>