<svg version="1.1" xmlns="http://www.w3.org/2000/svg" xmlns:xlink="http://www.w3.org/1999/xlink" width="152.32807" height="136.74906" viewBox="0,0,152.32807,136.74906"><defs><radialGradient cx="320" cy="180" r="96.42562" gradientUnits="userSpaceOnUse" id="color-1"><stop offset="0" stop-color="#000000"/><stop offset="1" stop-color="#000000" stop-opacity="0"/></radialGradient></defs><g transform="translate(-243.83597,-111.62547)"><g data-paper-data="{&quot;isPaintingLayer&quot;:true}" fill-rule="nonzero" stroke-linejoin="miter" stroke-miterlimit="10" stroke-dasharray="" stroke-dashoffset="0" style="mix-blend-mode: normal"><path d="M269.5,230.5v-101h101v101z" fill="#000000" stroke="#ffffff" stroke-width="2.5" stroke-linecap="butt"/><path d="M319.97241,187.7016l-14.65091,31.87726l-19.54266,-24.62301z" fill="#ffffff" stroke="#ffffff" stroke-width="0.5" stroke-linecap="round"/><text transform="translate(287.57601,152.7126) scale(0.48029,0.48029)" font-size="40" xml:space="preserve" fill="#ffffff" fill-rule="nonzero" stroke="none" stroke-width="1" stroke-linecap="butt" stroke-linejoin="miter" stroke-miterlimit="10" stroke-dasharray="" stroke-dashoffset="0" font-family="&quot;Bahnschrift&quot;, Pixel" font-weight="normal" text-anchor="start" style="mix-blend-mode: normal"><tspan x="0" dy="0">3 Shoot</tspan></text><path d="M322.99093,170.53375c0,2.3196 -1.76848,4.2 -3.95,4.2c-2.18152,0 -3.95,-1.8804 -3.95,-4.2c0,-2.3196 1.76848,-4.2 3.95,-4.2c2.18152,0 3.95,1.8804 3.95,4.2z" fill="#ffffff" stroke="none" stroke-width="0" stroke-linecap="butt"/><path d="M336.64173,191.06083c0,2.3196 -1.76848,4.2 -3.95,4.2c-2.18152,0 -3.95,-1.8804 -3.95,-4.2c0,-2.3196 1.76848,-4.2 3.95,-4.2c2.18152,0 3.95,1.8804 3.95,4.2z" fill="#ffffff" stroke="none" stroke-width="0" stroke-linecap="butt"/><path d="M329.88551,180.75556c0,2.3196 -1.76848,4.2 -3.95,4.2c-2.18152,0 -3.95,-1.8804 -3.95,-4.2c0,-2.3196 1.76848,-4.2 3.95,-4.2c2.18152,0 3.95,1.8804 3.95,4.2z" fill="#ffffff" stroke="none" stroke-width="0" stroke-linecap="butt"/><path d="M243.83597,248.37453v-136.74906h152.32807v136.74906z" fill="url(#color-1)" stroke="none" stroke-width="0" stroke-linecap="butt"/><text transform="translate(276.74576,185.76348) scale(0.48029,0.48029)" font-size="40" xml:space="preserve" fill="#dadada" fill-rule="nonzero" stroke="none" stroke-width="1" stroke-linecap="butt" stroke-linejoin="miter" stroke-miterlimit="10" stroke-dasharray="" stroke-dashoffset="0" font-family="&quot;Bahnschrift&quot;, Pixel" font-weight="normal" text-anchor="start" style="mix-blend-mode: normal"><tspan x="0" dy="0">Max Level</tspan></text><text transform="translate(201.42239,140.87116) scale(0.5,0.5)" font-size="40" xml:space="preserve" fill="#dadada" fill-rule="nonzero" stroke="none" stroke-width="1" stroke-linecap="butt" stroke-linejoin="miter" stroke-miterlimit="10" stroke-dasharray="" stroke-dashoffset="0" font-family="&quot;Bahnschrift&quot;, Pixel" font-weight="normal" text-anchor="start" style="mix-blend-mode: normal"><tspan x="0" dy="0"> </tspan></text></g></g></svg>