<svg version="1.1" xmlns="http://www.w3.org/2000/svg" xmlns:xlink="http://www.w3.org/1999/xlink" width="190.97582" height="38.51796" viewBox="0,0,190.97582,38.51796"><g transform="translate(-224.51209,-160.74102)"><g data-paper-data="{&quot;isPaintingLayer&quot;:true}" fill-rule="nonzero" stroke-linecap="butt" stroke-linejoin="miter" stroke-miterlimit="10" stroke-dasharray="" stroke-dashoffset="0" style="mix-blend-mode: normal"><path d="M225.76209,198.00898v-36.01796h188.47582v36.01796z" fill="#000000" stroke="#ffffff" stroke-width="2.5"/><text transform="translate(232.52172,185.76348) scale(0.48029,0.48029)" font-size="40" xml:space="preserve" fill="#ffffff" fill-rule="nonzero" stroke="none" stroke-width="1" stroke-linecap="butt" stroke-linejoin="miter" stroke-miterlimit="10" stroke-dasharray="" stroke-dashoffset="0" font-family="&quot;Bahnschrift&quot;, Pixel" font-weight="normal" text-anchor="start" style="mix-blend-mode: normal"><tspan x="0" dy="0">Spend 500 Points</tspan></text><path d="M396.30226,171.79667c0,2.3196 -1.76848,4.2 -3.95,4.2c-2.18152,0 -3.95,-1.8804 -3.95,-4.2c0,-2.3196 1.76848,-4.2 3.95,-4.2c2.18152,0 3.95,1.8804 3.95,4.2z" fill="#4f21ff" stroke="none" stroke-width="0"/><path d="M404.07927,180.96219c0,2.3196 -1.76848,4.2 -3.95,4.2c-2.18152,0 -3.95,-1.8804 -3.95,-4.2c0,-2.3196 1.76848,-4.2 3.95,-4.2c2.18152,0 3.95,1.8804 3.95,4.2z" fill="#4f21ff" stroke="none" stroke-width="0"/><path d="M393.52802,186.51759c0,2.3196 -1.76848,4.2 -3.95,4.2c-2.18152,0 -3.95,-1.8804 -3.95,-4.2c0,-2.3196 1.76848,-4.2 3.95,-4.2c2.18152,0 3.95,1.8804 3.95,4.2z" fill="#4f21ff" stroke="none" stroke-width="0"/></g></g></svg>