<svg version="1.1" xmlns="http://www.w3.org/2000/svg" xmlns:xlink="http://www.w3.org/1999/xlink" width="10.17668" height="10.66602" viewBox="0,0,10.17668,10.66602"><g transform="translate(-314.87798,-174.64777)"><g data-paper-data="{&quot;isPaintingLayer&quot;:true}" fill-rule="nonzero" stroke="none" stroke-width="0" stroke-linecap="butt" stroke-linejoin="miter" stroke-miterlimit="10" stroke-dasharray="" stroke-dashoffset="0" style="mix-blend-mode: normal"><path d="M323.95,180c0,2.3196 -1.76848,4.2 -3.95,4.2c-2.18152,0 -3.95,-1.8804 -3.95,-4.2c0,-1.16724 0.44781,-2.22326 1.17072,-2.98443c0.71369,-0.75147 1.69552,-1.21556 2.77928,-1.21556c2.18152,0 3.95,1.8804 3.95,4.2z" fill="#6b6b6b"/><path d="M316.66291,178.23727l-0.48141,-2.1469l0.04327,0.00439l1.98692,0.87918z" fill="#6b6b6b"/><path d="M316.90876,180.93515l-2.03078,-0.84667l0.02857,-0.03279l1.86513,-1.11451z" fill="#6b6b6b"/><path d="M321.127,183.33853l-0.96917,1.97525l-0.03098,-0.03052l-0.99846,-1.92974z" fill="#6b6b6b"/><path d="M323.04431,179.18828l2.01036,0.89409l-0.02933,0.03211l-1.89077,1.07044z" fill="#6b6b6b"/><path d="M318.93781,176.60511l1.00487,-1.95734l0.03042,0.03108l0.96328,1.94754z" fill="#6b6b6b"/><path d="M321.60807,176.84839l2.13269,-0.54089l-0.00319,0.04337l-0.82362,2.0106z" fill="#6b6b6b"/><path d="M322.5887,181.47537l1.04963,1.93371l-0.04281,0.00759l-2.15154,-0.30289z" fill="#6b6b6b"/><path d="M318.42685,183.32178l-2.09622,0.66842l0.00057,-0.04348l0.70096,-2.05658z" fill="#6b6b6b"/></g></g></svg>